<svg xmlns="http://www.w3.org/2000/svg" version="1.1" xmlns:xlink="http://www.w3.org/1999/xlink" xmlns:svgjs="http://svgjs.com/svgjs" width="512" height="512" x="0" y="0" viewBox="0 0 512 512" style="enable-background:new 0 0 512 512" xml:space="preserve" class=""><g>
<path xmlns="http://www.w3.org/2000/svg" style="" d="M255.999,512L34.297,383.999V128L255.999,0l221.702,128v256L255.999,512z" fill="#ffdc40" data-original="#ffdc40" class=""></path>
<polygon xmlns="http://www.w3.org/2000/svg" style="" points="477.702,128 255.999,0 34.297,128 255.999,255.999 255.999,512 477.703,383.999 477.703,128   " fill="#ff6849" data-original="#ff6849" class=""></polygon>
<polygon xmlns="http://www.w3.org/2000/svg" style="" points="477.702,128 255.999,0 255.999,255.999 " fill="#fd4b2d" data-original="#fd4b2d" class=""></polygon>
<polygon xmlns="http://www.w3.org/2000/svg" style="" points="255.999,255.999 255.999,512 477.703,383.999 477.703,128 477.702,128 " fill="#00aaf0" data-original="#00aaf0" class=""></polygon>
<polygon xmlns="http://www.w3.org/2000/svg" style="" points="255.999,142.495 354.297,199.248 384.377,181.881 286.079,125.129 379.404,71.248   349.325,53.881 255.999,107.763 162.675,53.881 132.595,71.248 225.921,125.129 127.623,181.881 157.703,199.248 " fill="#fd4b2d" data-original="#fd4b2d" class=""></polygon>
<polygon xmlns="http://www.w3.org/2000/svg" style="" points="384.397,293.846 384.397,181.893 384.377,181.881 354.297,199.248 354.317,199.259   354.317,311.213 255.999,367.977 255.999,402.71 354.317,345.946 354.317,455.236 384.397,437.869 384.397,328.579 477.703,274.709   477.703,239.977 " fill="#0096dc" data-original="#0096dc" class=""></polygon>
<polygon xmlns="http://www.w3.org/2000/svg" style="" points="157.683,311.213 157.683,199.259 157.703,199.248 127.623,181.881 127.603,181.893   127.603,293.846 34.297,239.977 34.297,274.709 127.603,328.58 127.603,437.869 157.683,455.236 157.683,345.946 255.999,402.71   255.999,367.977 " fill="#ffab15" data-original="#ffab15" class=""></polygon>
<polygon xmlns="http://www.w3.org/2000/svg" style="" points="286.079,125.129 379.404,71.248 349.325,53.881 255.999,107.763 255.999,142.495   354.297,199.248 384.377,181.881 " fill="#e8130f" data-original="#e8130f"></polygon>
<g xmlns="http://www.w3.org/2000/svg">
</g>
<g xmlns="http://www.w3.org/2000/svg">
</g>
<g xmlns="http://www.w3.org/2000/svg">
</g>
<g xmlns="http://www.w3.org/2000/svg">
</g>
<g xmlns="http://www.w3.org/2000/svg">
</g>
<g xmlns="http://www.w3.org/2000/svg">
</g>
<g xmlns="http://www.w3.org/2000/svg">
</g>
<g xmlns="http://www.w3.org/2000/svg">
</g>
<g xmlns="http://www.w3.org/2000/svg">
</g>
<g xmlns="http://www.w3.org/2000/svg">
</g>
<g xmlns="http://www.w3.org/2000/svg">
</g>
<g xmlns="http://www.w3.org/2000/svg">
</g>
<g xmlns="http://www.w3.org/2000/svg">
</g>
<g xmlns="http://www.w3.org/2000/svg">
</g>
<g xmlns="http://www.w3.org/2000/svg">
</g>
</g></svg>